Coordinates
version=1
nRows=17
nColumns=38
inDegrees=yes

Units are S.I. units (second, meters, Newtons, ...)
Angles are in degrees.

endheader
time	pelvis_tilt	pelvis_list	pelvis_rotation	pelvis_tx	pelvis_ty	pelvis_tz	hip_flexion_r	hip_adduction_r	hip_rotation_r	knee_angle_r	ankle_angle_r	subtalar_angle_r	mtp_angle_r	hip_flexion_l	hip_adduction_l	hip_rotation_l	knee_angle_l	ankle_angle_l	subtalar_angle_l	mtp_angle_l	lumbar_extension	lumbar_bending	lumbar_rotation	arm_flex_r	arm_add_r	arm_rot_r	elbow_flex_r	pro_sup_r	wrist_flex_r	wrist_dev_r	arm_flex_l	arm_add_l	arm_rot_l	elbow_flex_l	pro_sup_l	wrist_flex_l	wrist_dev_l
      1.48000000	      3.63072335	     -1.72958026	      7.23700871	      0.08626429	      0.96163757	     -0.25755597	     19.50922682	      2.65909743	    -12.07777980	    -20.90642820	     -2.20659055	      0.00000000	      0.00000000	     -6.00278593	     -4.48823253	     -4.05467551	    -49.87949885	    -14.19061841	      0.00000000	      0.00000000	    -13.66720182	      4.79191742	     -9.39152876	    -12.24595527	     -9.04573143	     37.54409009	     28.38650987	     40.73912791	      0.00000000	      0.00000000	      7.52461054	    -12.22247158	     23.93080473	     55.87086767	     40.73912791	      0.00000000	      0.00000000
      1.49000000	      3.94589955	     -2.19109762	      7.23101211	      0.10100065	      0.96349489	     -0.25610065	     18.47863082	      3.42447896	    -11.85472483	    -21.33318295	     -0.92993779	      0.00000000	      0.00000000	     -4.49460559	     -5.78944056	     -4.57151976	    -53.08073862	    -16.63685289	      0.00000000	      0.00000000	    -13.91384180	      5.22017904	     -8.94854880	    -11.80768353	     -9.10320308	     37.50220126	     28.42501535	     40.76392664	      0.00000000	      0.00000000	      6.85491647	    -11.93217960	     24.09398583	     55.42142995	     40.76392664	      0.00000000	      0.00000000
      1.50000000	      3.80160182	     -3.74825937	      7.08878773	      0.11529295	      0.96458006	     -0.25359513	     17.60730344	      5.36735558	    -12.34122324	    -20.60495970	     -0.70705780	      0.00000000	      0.00000000	     -2.24979554	     -8.76872535	     -6.07359339	    -56.42033960	    -17.16613172	      0.00000000	      0.00000000	    -13.55797506	      6.73937098	     -8.12349550	    -11.29632263	     -9.36544109	     37.48278923	     28.57232519	     40.81353972	      0.00000000	      0.00000000	      6.17424831	    -11.54281396	     24.26243673	     54.39444793	     40.81353972	      0.00000000	      0.00000000
      1.51000000	      3.63888610	     -5.19394761	      7.22998549	      0.12913290	      0.96574588	     -0.25188510	     16.48535947	      7.14279843	    -12.97405759	    -19.31913139	     -0.49629422	      0.00000000	      0.00000000	     -0.04018274	    -11.21222388	     -6.37981061	    -59.43765994	    -15.41850607	      0.00000000	      0.00000000	    -13.18759020	      8.21008439	     -7.38501220	    -11.15785915	     -9.74935802	     37.02858363	     29.54554724	     41.56591899	      0.00000000	      0.00000000	      6.91013771	    -11.02817845	     27.27527611	     50.61230015	     41.56591899	      0.00000000	      0.00000000
      1.52000000	      3.59056864	     -6.23026248	      7.09587591	      0.14287040	      0.96748318	     -0.24968704	     15.04501929	      8.65240367	    -13.02020478	    -17.75116072	     -0.38538412	      0.00000000	      0.00000000	      1.86568737	    -12.90390625	     -6.33294039	    -61.87060096	    -12.66587093	      0.00000000	      0.00000000	    -13.06482967	      9.14403573	     -6.61547901	    -10.63945760	     -9.97417463	     36.99212449	     29.74490080	     41.61648939	      0.00000000	      0.00000000	      6.17281746	    -10.71924138	     27.37650837	     50.08469321	     41.61648939	      0.00000000	      0.00000000
      1.53000000	      3.58374542	     -6.94297412	      7.14283428	      0.15632313	      0.96947774	     -0.24809263	     13.57312158	      9.76231537	    -13.09176807	    -16.28153773	     -0.25992939	      0.00000000	      0.00000000	      3.84664086	    -14.06925863	     -5.90122853	    -63.95524705	     -8.81622658	      0.00000000	      0.00000000	    -13.01039054	      9.76666342	     -6.09913749	    -10.04164174	    -10.17342122	     36.99787933	     30.12635976	     41.67541694	      0.00000000	      0.00000000	      5.67896509	    -10.32856718	     27.47947282	     49.03372165	     41.67541694	      0.00000000	      0.00000000
      1.54000000	      3.66773495	     -6.99302050	      7.11906286	      0.16973310	      0.97183302	     -0.24667612	     12.09529151	     10.17957848	    -12.69555839	    -15.27301990	      0.23607778	      0.00000000	      0.00000000	      5.58348501	    -14.51813208	     -5.70531413	    -65.56967896	     -5.91834491	      0.00000000	      0.00000000	    -13.12711789	      9.63369214	     -5.66911468	     -9.10505865	    -10.29420768	     36.92969041	     30.46131428	     41.69452243	      0.00000000	      0.00000000	      5.07249660	    -10.21332508	     27.60390159	     48.46921202	     41.69452243	      0.00000000	      0.00000000
      1.55000000	      3.81572394	     -7.16230756	      7.23095943	      0.18308445	      0.97412008	     -0.24529605	     10.69543627	     10.67790574	    -12.49801895	    -14.48396141	      0.60838515	      0.00000000	      0.00000000	      7.25548483	    -15.26013371	     -5.76250580	    -66.90046161	     -2.97046092	      0.00000000	      0.00000000	    -13.29159525	      9.62654202	     -5.40273814	     -8.59127978	    -10.34043246	     36.91519817	     30.69330971	     41.71132791	      0.00000000	      0.00000000	      4.44931304	    -10.07935924	     27.72974701	     47.83891941	     41.71132791	      0.00000000	      0.00000000
      1.56000000	      3.84324304	     -7.70087537	      7.50066937	      0.19579444	      0.97609798	     -0.24469924	      9.52435809	     11.46677460	    -12.53286230	    -13.63028654	      0.52032301	      0.00000000	      0.00000000	      9.35536670	    -16.00563980	     -5.11388619	    -68.12277073	     -1.57603336	      0.00000000	      0.00000000	    -13.29200433	     10.15590746	     -5.03925603	     -8.01384112	    -10.74246123	     36.99229051	     31.57100239	     41.80534550	      0.00000000	      0.00000000	      4.36771947	     -9.51182929	     28.20355137	     45.42240608	     41.80534550	      0.00000000	      0.00000000
      1.57000000	      3.92053949	     -7.42864827	      7.36765441	      0.20914977	      0.97852928	     -0.24387084	      8.14387801	     11.47674259	    -11.91971095	    -12.95936447	      0.98636818	      0.00000000	      0.00000000	     10.82864817	    -15.75105576	     -5.06485214	    -68.58864440	     -0.03724333	      0.00000000	      0.00000000	    -13.40726000	      9.70614382	     -4.64146808	     -7.24474292	    -10.85250106	     36.91327728	     31.82377377	     41.82122631	      0.00000000	      0.00000000	      3.69843150	     -9.39300164	     28.39537943	     44.88793250	     41.82122631	      0.00000000	      0.00000000
      1.58000000	      3.95532450	     -7.17895263	      7.25458958	      0.22204735	      0.98080408	     -0.24316128	      6.75708369	     11.48467330	    -11.43758697	    -12.07632407	      1.22688105	      0.00000000	      0.00000000	     12.34041585	    -15.32261948	     -4.89229119	    -68.76135276	      1.30268426	      0.00000000	      0.00000000	    -13.51288382	      9.27396708	     -4.22433786	     -6.43063936	    -11.01433869	     36.83248897	     32.12248859	     41.83663968	      0.00000000	      0.00000000	      3.06061504	     -9.31180480	     28.55903081	     44.26697394	     41.83663968	      0.00000000	      0.00000000
      1.59000000	      3.94466573	     -6.85521699	      7.09760727	      0.23492405	      0.98286950	     -0.24262250	      5.24600648	     11.39252981	    -10.49806566	    -10.95270772	      1.47289477	      0.00000000	      0.00000000	     13.77948155	    -14.61848427	     -4.63794549	    -68.56664568	      2.31905826	      0.00000000	      0.00000000	    -13.54235944	      8.79763174	     -3.89988830	     -5.59061799	    -11.21957155	     36.75676744	     32.58706163	     41.86064119	      0.00000000	      0.00000000	      2.39397450	     -9.23436927	     28.76999570	     43.31984174	     41.86064119	      0.00000000	      0.00000000
      1.60000000	      3.84005923	     -6.56671740	      6.87493435	      0.24734080	      0.98462187	     -0.24214689	      3.94554663	     11.28310186	     -9.83882703	     -9.92043725	      1.57325234	      0.00000000	      0.00000000	     15.26602538	    -13.85045178	     -4.40076442	    -68.06642978	      2.96241127	      0.00000000	      0.00000000	    -13.54118919	      8.36537747	     -3.47465875	     -4.70444046	    -11.46009948	     36.64235003	     33.01407179	     41.88049733	      0.00000000	      0.00000000	      1.81122302	     -9.14361177	     28.92404058	     42.65755978	     41.88049733	      0.00000000	      0.00000000
      1.61000000	      3.67884889	     -6.20917969	      6.59763147	      0.26003107	      0.98602692	     -0.24140447	      2.68086577	     11.09905155	     -9.11495763	     -8.92230772	      1.79754888	      0.00000000	      0.00000000	     16.55947633	    -13.12756662	     -4.64113755	    -67.08781225	      4.25804111	      0.00000000	      0.00000000	    -13.40634519	      7.78971814	     -3.10892932	     -3.84361822	    -11.68507670	     36.53087344	     33.61485261	     41.90619569	      0.00000000	      0.00000000	      1.08626318	     -9.10667312	     29.09108862	     41.73855764	     41.90619569	      0.00000000	      0.00000000
      1.62000000	      3.47482721	     -5.78692495	      6.13034307	      0.27249422	      0.98713824	     -0.24055919	      1.48103549	     10.81545782	     -8.26970884	     -7.94283660	      2.01307517	      0.00000000	      0.00000000	     17.89307465	    -12.22520993	     -4.78931466	    -65.94190709	      4.49116949	      0.00000000	      0.00000000	    -13.30327016	      7.15725342	     -2.65567418	     -2.98025803	    -11.95339696	     36.39389338	     34.31123103	     41.93377395	      0.00000000	      0.00000000	      0.44845988	     -9.08020852	     29.25787041	     40.83219234	     41.93377395	      0.00000000	      0.00000000
      1.63000000	      3.24054734	     -5.34369857	      5.54051448	      0.28513232	      0.98783141	     -0.23961639	      0.42186813	     10.47375649	     -7.37742703	     -7.22185032	      2.41505327	      0.00000000	      0.00000000	     19.12325590	    -11.42225949	     -5.26232003	    -64.48976100	      4.87417985	      0.00000000	      0.00000000	    -13.12755962	      6.48791911	     -2.07825317	     -2.19230335	    -12.23767006	     36.22244627	     35.22629574	     41.96827254	      0.00000000	      0.00000000	     -0.23841490	     -9.07077642	     29.47399809	     39.79207180	     41.96827254	      0.00000000	      0.00000000
      1.64000000	      3.07043168	     -5.17584539	      4.81013939	      0.29766401	      0.98820106	     -0.23855035	     -0.49565281	     10.39136795	     -6.59441922	     -6.81449944	      2.77131574	      0.00000000	      0.00000000	     20.25333693	    -11.14876998	     -6.20532710	    -62.90212002	      5.35001673	      0.00000000	      0.00000000	    -13.03688012	      6.14255890	     -1.06712635	     -3.28143327	    -12.73408571	     29.57214206	     41.17250007	     42.62854743	      0.00000000	      0.00000000	      0.91763598	     -9.03240611	     35.85529185	     34.68883685	     42.62854743	      0.00000000	      0.00000000
